<?xml version="1.0" standalone="no"?>
<!DOCTYPE svg PUBLIC "-//W3C//DTD SVG 20010904//EN"
 "http://www.w3.org/TR/2001/REC-SVG-20010904/DTD/svg10.dtd">
<svg version="1.0" xmlns="http://www.w3.org/2000/svg"
 width="700.000000pt" height="700.000000pt" viewBox="0 0 700.000000 700.000000"
 preserveAspectRatio="xMidYMid meet">
<metadata>
Created by potrace 1.14, written by Peter Selinger 2001-2017
</metadata>
<g transform="translate(0.000000,700.000000) scale(0.100000,-0.100000)"
fill="#000000" stroke="none">
<path d="M3415 6986 c-47 -18 -115 -87 -218 -224 -379 -504 -636 -1138 -716
-1767 -26 -199 -29 -239 -30 -398 l-1 -127 -22 14 c-65 40 -306 158 -436 212
-17 8 -47 20 -65 28 -211 92 -655 216 -937 261 -286 46 -341 47 -409 13 -92
-48 -138 -147 -120 -258 5 -30 11 -71 14 -90 10 -62 54 -236 81 -322 146 -455
424 -849 840 -1190 l76 -63 -88 -18 c-49 -10 -98 -20 -109 -22 -11 -3 -32 -7
-46 -10 -35 -6 -231 -70 -299 -97 -183 -73 -462 -240 -556 -333 -56 -55 -74
-104 -68 -180 6 -80 44 -135 132 -189 237 -147 596 -298 852 -357 25 -6 52
-12 60 -15 96 -24 289 -60 375 -69 33 -4 71 -8 85 -11 14 -2 72 -7 130 -10 58
-3 108 -9 112 -12 4 -4 -2 -34 -14 -67 -21 -62 -22 -67 -39 -150 -25 -126 -32
-374 -13 -449 16 -61 57 -113 115 -146 41 -23 53 -25 174 -24 138 0 215 7 305
25 30 6 68 13 83 15 40 7 233 72 287 96 147 66 264 132 477 266 45 28 85 48
88 43 8 -14 232 -154 340 -212 290 -157 542 -229 820 -234 159 -3 245 21 298
84 39 47 49 93 50 230 2 189 -15 309 -62 461 -11 35 -19 65 -18 66 1 1 54 5
117 8 153 9 208 16 375 46 155 27 157 28 285 61 338 90 776 283 908 403 60 53
82 152 54 238 -19 60 -67 106 -214 203 -247 165 -523 277 -831 339 l-109 22
49 39 c157 126 339 307 454 450 245 305 422 690 488 1060 6 33 14 71 17 85 3
14 5 52 6 86 1 102 -65 190 -164 218 -24 7 -52 11 -63 11 -358 -30 -851 -147
-1203 -286 -173 -68 -432 -191 -529 -251 l-33 -20 -1 119 c-1 65 -2 136 -4
158 -9 109 -16 192 -19 215 -3 14 -7 43 -9 65 -32 234 -136 640 -211 820 -7
17 -35 82 -61 145 -118 281 -277 557 -457 794 -106 139 -138 171 -188 193 -50
22 -137 26 -185 9z"/>
<path d="M3450 794 c-25 -14 -76 -42 -113 -61 l-68 -35 1 -257 c1 -247 2 -260
24 -307 38 -82 122 -134 216 -134 51 0 131 41 164 84 47 63 53 100 53 361 1
203 -1 243 -15 258 -8 9 -19 17 -23 17 -4 0 -46 23 -94 50 -48 28 -90 50 -93
50 -4 0 -27 -12 -52 -26z"/>
</g>
</svg>
