<?xml version="1.0" encoding="utf-8"?><!-- Uploaded to: SVG Repo, www.svgrepo.com, Generator: SVG Repo Mixer Tools -->
<svg version="1.1" id="Uploaded to svgrepo.com" xmlns="http://www.w3.org/2000/svg" xmlns:xlink="http://www.w3.org/1999/xlink" 
	 width="800px" height="800px" viewBox="0 0 32 32" xml:space="preserve">
<style type="text/css">
	.bentblocks_een{fill:#0B1719;}
</style>
<path class="bentblocks_een" d="M27,15c0,2.206-1.794,4-4,4h-3v-2h3c1.103,0,2-0.897,2-2c0-0.865-0.589-1.647-1.432-1.902
	l-0.897-0.271C22.804,12.255,23,11.553,23,11c0-2.206-1.794-4-4-4c-2.286,0-3.18,1.567-3.812,2.567
	c-3.528-1.347-5.711,0.374-6.117,2.759l-0.102,0.596l-0.575,0.188C7.561,13.381,7,14.141,7,15c0,1.103,0.897,2,2,2h3v2H9
	c-2.206,0-4-1.794-4-4c0-1.527,0.872-2.896,2.221-3.566c0.851-3.175,4.076-5.03,7.172-4.261C15.527,5.8,17.199,5,19,5
	c3.569,0,6.32,3.115,5.972,6.539C26.199,12.241,27,13.563,27,15z M11,26l5-8l5,8h-4v3h-2v-3H11z M16,21.774L14.609,24h2.783
	L16,21.774z"/>
</svg>