<?xml version="1.0" encoding="iso-8859-1"?>
<!-- Uploaded to: SVG Repo, www.svgrepo.com, Generator: SVG Repo Mixer Tools -->
<svg fill="#000000" height="800px" width="800px" version="1.1" id="Layer_1" xmlns="http://www.w3.org/2000/svg" xmlns:xlink="http://www.w3.org/1999/xlink" 
	 viewBox="0 0 512.001 512.001" xml:space="preserve">
<g>
	<g>
		<path d="M483.15,320.441c-18.923-14.137-41.793-27.433-79.03-33.365c35.823-27.633,66.393-65.333,74.451-123.575
			c1.471-10.739-7.5-20.018-18.238-18.907c-45.578,4.622-90.351,18.966-127.5,40.401c1.643-71.063-28.863-139.093-64.261-179.554
			c-6.351-7.254-18.792-7.254-25.143,0c-35.399,40.461-65.904,108.491-64.261,179.554c-37.149-21.435-81.922-35.779-127.5-40.401
			c-10.872-1.117-19.69,8.308-18.238,18.907c8.058,58.242,38.629,95.94,74.451,123.575c-37.237,5.932-60.107,19.228-79.03,33.365
			c-9.383,7.015-8.781,21.21,1.011,27.465c33.887,21.62,78.638,34.453,121.008,35.606c-5.329,13.42-7.319,28.569-6.198,46.046
			c0.543,8.482,7.384,15.209,15.878,15.612c41.119,1.881,68.862-15.567,95.451-33.082c25.219,16.629,51.57,33.229,89.242,33.229
			c14.99,0,21.472-6.151,22.088-15.758c1.12-17.476-0.87-32.626-6.198-46.046c42.37-1.158,87.132-13.986,121.008-35.606
			C491.931,341.649,492.534,327.454,483.15,320.441z"/>
	</g>
</g>
<g>
	<g>
		<path d="M255.99,451.719c-5.208,3.135-10.79,6.239-16.693,9.186v34.391c0,9.227,7.482,16.704,16.704,16.704
			s16.593-7.477,16.593-16.704v-34.371C266.683,457.971,261.205,454.861,255.99,451.719z"/>
	</g>
</g>
</svg>